<svg id="Layer_1" data-name="Layer 1" xmlns="http://www.w3.org/2000/svg" viewBox="0 0 32 32"><defs><style>.cls-1{fill:#28363f;}</style></defs><path class="cls-1" d="M561.75,1226.53v6.56a.88.88,0,1,0,1.76,0v-6.59a9.7,9.7,0,0,1-1.76,0Z" transform="translate(-546.64 -1202)"/><path class="cls-1" d="M563.51,1209.47v-6.56a.88.88,0,1,0-1.76,0v6.59a9.7,9.7,0,0,1,1.76,0Z" transform="translate(-546.64 -1202)"/><path class="cls-1" d="M568.08,1224.67l4.61,4.61a.86.86,0,0,0,1.23,0,.85.85,0,0,0,0-1.23l-4.61-4.61A8.94,8.94,0,0,1,568.08,1224.67Z" transform="translate(-546.64 -1202)"/><path class="cls-1" d="M557.2,1211.33l-4.61-4.61a.87.87,0,0,0-1.23,1.23l4.61,4.61A8.94,8.94,0,0,1,557.2,1211.33Z" transform="translate(-546.64 -1202)"/><path class="cls-1" d="M577.73,1217.06h-6.56a9.81,9.81,0,0,1,0,1.77h6.59a.89.89,0,1,0,0-1.77Z" transform="translate(-546.64 -1202)"/><path class="cls-1" d="M554.11,1217.06h-6.56a.9.9,0,0,0-.86.59.89.89,0,0,0,.83,1.18h6.59a9.81,9.81,0,0,1,0-1.77Z" transform="translate(-546.64 -1202)"/><path class="cls-1" d="M556.23,1223.44l-5.28,4.61a.79.79,0,0,0,0,1.23,1.11,1.11,0,0,0,.71.26,1.09,1.09,0,0,0,.71-.26l5.27-4.61A9.79,9.79,0,0,1,556.23,1223.44Z" transform="translate(-546.64 -1202)"/><path class="cls-1" d="M569.31,1212.56l4.61-4.61a.85.85,0,0,0,0-1.23.87.87,0,0,0-1.23,0l-4.61,4.61A8.94,8.94,0,0,1,569.31,1212.56Z" transform="translate(-546.64 -1202)"/><circle class="cls-1" cx="15.99" cy="16" r="7.29"/></svg>