<svg width="54" height="54" viewBox="0 0 54 54" fill="none" xmlns="http://www.w3.org/2000/svg">
<path d="M0 16C0 7.16344 7.16344 0 16 0H38C46.8366 0 54 7.16344 54 16V38C54 46.8366 46.8366 54 38 54H16C7.16344 54 0 46.8366 0 38V16Z" fill="#05CE91"/>
<path d="M36 26.5C36.0034 27.8199 35.6951 29.1219 35.1 30.3C34.3944 31.7118 33.3098 32.8992 31.9674 33.7293C30.6251 34.5594 29.0782 34.9994 27.5 35C26.1801 35.0035 24.8781 34.6951 23.7 34.1L18 36L19.9 30.3C19.3049 29.1219 18.9966 27.8199 19 26.5C19.0006 24.9218 19.4406 23.3749 20.2707 22.0326C21.1008 20.6903 22.2883 19.6056 23.7 18.9C24.8781 18.305 26.1801 17.9966 27.5 18H28C30.0843 18.115 32.053 18.9948 33.5291 20.4709C35.0052 21.947 35.885 23.9157 36 26V26.5Z" stroke="#FCFEFF" stroke-width="2" stroke-linecap="round" stroke-linejoin="round"/>
<path d="M24.3333 25C26.1281 25 30.0409 25 31.3333 25" stroke="#FCFEFF" stroke-width="2" stroke-linecap="round"/>
<path d="M24.3333 29C25.3589 29 27.5948 29 28.3333 29" stroke="#FCFEFF" stroke-width="2" stroke-linecap="round"/>
</svg>
