<svg width="54" height="54" viewBox="0 0 54 54" fill="none" xmlns="http://www.w3.org/2000/svg">
<rect width="54" height="54" rx="16" fill="white"/>
<path fill-rule="evenodd" clip-rule="evenodd" d="M27 19C25.3431 19 24 20.3431 24 22C24 23.6569 25.3431 25 27 25C28.6569 25 30 23.6569 30 22C30 20.3431 28.6569 19 27 19ZM22 22C22 19.2386 24.2386 17 27 17C29.7614 17 32 19.2386 32 22C32 24.7614 29.7614 27 27 27C24.2386 27 22 24.7614 22 22Z" fill="#28363F"/>
<path fill-rule="evenodd" clip-rule="evenodd" d="M19.4645 30.4645C20.4021 29.5268 21.6739 29 23 29H31C32.3261 29 33.5978 29.5268 34.5355 30.4645C35.4732 31.4021 36 32.6739 36 34V36C36 36.5523 35.5523 37 35 37H19C18.4477 37 18 36.5523 18 36V34C18 32.6739 18.5268 31.4021 19.4645 30.4645ZM23 31C22.2044 31 21.4413 31.3161 20.8787 31.8787C20.3161 32.4413 20 33.2044 20 34V35H34V34C34 33.2044 33.6839 32.4413 33.1213 31.8787C32.5587 31.3161 31.7956 31 31 31H23Z" fill="#28363F"/>
</svg>
