<svg width="54" height="54" viewBox="0 0 54 54" fill="none" xmlns="http://www.w3.org/2000/svg">
<path d="M0 16C0 7.16344 7.16344 0 16 0H38C46.8366 0 54 7.16344 54 16V38C54 46.8366 46.8366 54 38 54H16C7.16344 54 0 46.8366 0 38V16Z" fill="#05CE91"/>
<path d="M19.0714 30.4444C17.4063 22.1468 26.875 16 26.875 16C26.875 16 36.3436 22.1468 34.6786 30.4444C33.5638 36 26.875 36 26.875 36C26.875 36 20.1863 36 19.0714 30.4444Z" stroke="white" stroke-width="1.83626"/>
<path d="M26.8749 22.6972L26.8749 27.8722M26.875 39.2499L26.875 31.6044M26.875 31.6044L30.875 29.1044M26.875 31.6044L26.8749 27.8722M26.8749 27.8722L23.3749 24.8722" stroke="white" stroke-width="1.83626" stroke-linecap="round" stroke-linejoin="round"/>
</svg>
