<svg width="37" height="30" viewBox="0 0 37 30" fill="none" xmlns="http://www.w3.org/2000/svg">
<path d="M4.88889 6.6H32.1111V25.2667H4.88889V6.6ZM4.88889 6.6H32.1111V14.0667L30.6522 13.3664C29.1907 12.6649 27.4473 12.944 26.2778 14.0667C25.1371 15.1617 23.3948 15.3327 22.0631 14.4804L21.4167 14.0667C19.6387 12.9288 17.3613 12.9288 15.5833 14.0667L14.9369 14.4804C13.6052 15.3327 11.8629 15.1617 10.7222 14.0667C9.55273 12.944 7.80931 12.6649 6.34779 13.3664L4.88889 14.0667V6.6ZM10.7222 6.6C11.7961 6.6 12.6667 5.76427 12.6667 4.73333C12.6667 4.04605 12.0185 2.8016 10.7222 1C9.42593 2.8016 8.77778 4.04605 8.77778 4.73333C8.77778 5.76427 9.64833 6.6 10.7222 6.6ZM18.5 6.6C19.5739 6.6 20.4444 5.76427 20.4444 4.73333C20.4444 4.04605 19.7963 2.8016 18.5 1C17.2037 2.8016 16.5556 4.04605 16.5556 4.73333C16.5556 5.76427 17.4261 6.6 18.5 6.6ZM26.2778 6.6C27.3517 6.6 28.2222 5.76427 28.2222 4.73333C28.2222 4.04605 27.5741 2.8016 26.2778 1C24.9815 2.8016 24.3333 4.04605 24.3333 4.73333C24.3333 5.76427 25.2039 6.6 26.2778 6.6ZM4.73333 29H32.2667C34.3285 29 36 27.3285 36 25.2667H1C1 27.3285 2.67147 29 4.73333 29Z" fill="#FF7D61"/>
<path d="M4.88889 6.6H32.1111M4.88889 6.6V25.2667H32.1111V6.6M4.88889 6.6V14.0667L6.34779 13.3664C7.80931 12.6649 9.55273 12.944 10.7222 14.0667C11.8629 15.1617 13.6052 15.3327 14.9369 14.4804L15.5833 14.0667C17.3613 12.9288 19.6387 12.9288 21.4167 14.0667L22.0631 14.4804C23.3948 15.3327 25.1371 15.1617 26.2778 14.0667C27.4473 12.944 29.1907 12.6649 30.6522 13.3664L32.1111 14.0667V6.6M10.7222 6.6C11.7961 6.6 12.6667 5.76427 12.6667 4.73333C12.6667 4.04605 12.0185 2.8016 10.7222 1C9.42593 2.8016 8.77778 4.04605 8.77778 4.73333C8.77778 5.76427 9.64833 6.6 10.7222 6.6ZM18.5 6.6C19.5739 6.6 20.4444 5.76427 20.4444 4.73333C20.4444 4.04605 19.7963 2.8016 18.5 1C17.2037 2.8016 16.5556 4.04605 16.5556 4.73333C16.5556 5.76427 17.4261 6.6 18.5 6.6ZM26.2778 6.6C27.3517 6.6 28.2222 5.76427 28.2222 4.73333C28.2222 4.04605 27.5741 2.8016 26.2778 1C24.9815 2.8016 24.3333 4.04605 24.3333 4.73333C24.3333 5.76427 25.2039 6.6 26.2778 6.6ZM4.73333 29H32.2667C34.3285 29 36 27.3285 36 25.2667H1C1 27.3285 2.67147 29 4.73333 29Z" stroke="#28363F" stroke-linejoin="round"/>
</svg>
