<?xml version="1.0" ?><svg style="enable-background:new 0 0 128 128;" version="1.1" viewBox="0 0 128 128" xml:space="preserve" xmlns="http://www.w3.org/2000/svg" xmlns:xlink="http://www.w3.org/1999/xlink"><style type="text/css">
	.st0{fill:none;stroke:#000000;stroke-width:8;stroke-miterlimit:10;}
	.st1{display:none;}
	.st2{display:inline;opacity:0.25;fill:#F45EFD;}
</style><g id="_x31_2_3D_Printing"/><g id="_x31_1_VR_Gear"/><g id="_x31_0_Virtual_reality"/><g id="_x39__Augmented_reality"/><g id="_x38__Teleport"/><g id="_x37__Glassess"/><g id="_x36__Folding_phone"/><g id="_x35__Drone"/><g id="_x34__Retina_scan"><g><path d="M120,60h-8V20H92v8h12v28.1C98.1,47.3,84.8,32,64,32S29.9,47.3,24,56.1V28h12v-8H16v40H8v8h8v40h20v-8H24V71.9    C29.9,80.7,43.2,96,64,96s34.1-15.3,40-24.1V100H92v8h20V68h8V60z M64,40c16.5,0,27.6,12.4,32.9,20H83.6c-1.9-9.1-9.9-16-19.6-16    s-17.7,6.9-19.6,16H31.1C36.3,52.4,47.4,40,64,40z M52.7,60c1.7-4.7,6.1-8,11.3-8s9.6,3.3,11.3,8H52.7z M75.3,68    c-1.7,4.7-6.1,8-11.3,8s-9.6-3.3-11.3-8H75.3z M64,88c-16.5,0-27.6-12.4-32.9-20h13.3c1.9,9.1,9.9,16,19.6,16s17.7-6.9,19.6-16    h13.3C91.7,75.6,80.6,88,64,88z"/><rect height="8" width="8" x="76" y="20"/><rect height="8" width="8" x="44" y="100"/></g></g><g id="_x33__Smartwatch"/><g id="_x32__Bionic_Arm"/><g id="_x31__Chip"/><g class="st1" id="Guide"><path class="st2" d="M120,8v112H8V8H120 M128,0H0v128h128V0L128,0z"/></g></svg>