<?xml version="1.0" ?><svg id="Capa_1" style="enable-background:new 0 0 100 100;" version="1.1" viewBox="0 0 100 100" xml:space="preserve" xmlns="http://www.w3.org/2000/svg" xmlns:xlink="http://www.w3.org/1999/xlink"><path d="M67.7,79H38c-1.8,0-3.2-1.4-3.2-3.2v-3.7c0-0.8,0.7-1.5,1.5-1.5h33c0.8,0,1.5,0.7,1.5,1.5v3.7C70.8,77.6,69.4,79,67.7,79z   M37.8,73.6v2.2c0,0.1,0.1,0.2,0.2,0.2h29.6c0.1,0,0.2-0.1,0.2-0.2v-2.2H37.8z"/><path d="M72,62.7c-0.8,0-1.5-0.7-1.5-1.5s0.7-1.5,1.5-1.5c7.9,0,14.2-6.4,14.2-14.2c0-7.9-6.4-14.2-14.2-14.2  c-0.8,0-1.5-0.7-1.5-1.5s0.7-1.5,1.5-1.5c9.5,0,17.2,7.7,17.2,17.2C89.3,55,81.5,62.7,72,62.7z"/><path d="M71.2,73.6H34.4c-0.4,0-0.8-0.2-1.1-0.5c-0.3-0.3-0.4-0.7-0.4-1.2l2.2-19.6L17,34.6l-8.3-2.1c-0.5-0.1-0.9-0.5-1.1-1.1  c-0.1-0.5,0-1.1,0.4-1.5l11.9-12.1c0.4-0.4,0.9-0.5,1.4-0.4c0.5,0.1,0.9,0.5,1.1,1.1l2.3,8.3l11.9,11.7l1.3-12.1  c0.1-0.8,0.7-1.3,1.5-1.3h31.8c0.8,0,1.5,0.7,1.5,1.5v45.6C72.8,72.9,72.1,73.6,71.2,73.6z M36.1,70.6h33.6V28.1h-29l-1.5,13.8  c-0.1,0.6-0.4,1.1-1,1.2c-0.5,0.2-1.1,0.1-1.6-0.3L22.3,28.6c-0.2-0.2-0.3-0.4-0.4-0.7l-1.7-6.2l-8.2,8.4l6.2,1.6  c0.3,0.1,0.5,0.2,0.7,0.4l18.9,18.5c0.3,0.3,0.5,0.8,0.4,1.2L36.1,70.6z"/><path d="M67.9,37.7c-0.4,0-0.8-0.3-0.8-0.8V35c0-0.4,0.3-0.8,0.8-0.8s0.8,0.3,0.8,0.8v1.9C68.6,37.4,68.3,37.7,67.9,37.7z"/><path d="M67.9,33.5c-0.4,0-0.8-0.3-0.8-0.8v-1.6h-3.5c-0.4,0-0.8-0.3-0.8-0.8s0.3-0.8,0.8-0.8h4.3c0.4,0,0.8,0.3,0.8,0.8v2.4  C68.6,33.1,68.3,33.5,67.9,33.5z"/></svg>