<?xml version="1.0" ?><svg id="Layer_1" style="enable-background:new 0 0 256 256;" version="1.1" viewBox="0 0 256 256" xml:space="preserve" xmlns="http://www.w3.org/2000/svg" xmlns:xlink="http://www.w3.org/1999/xlink"><g><path d="M158.7,93.6l-3.9,24.3C152.3,130.7,141,140,128,140s-24.3-9.3-26.8-22l-3.9-24.4c-0.4-2.7-2.9-4.5-5.6-4.1   c-2.7,0.4-4.5,2.9-4.1,5.6l4,24.6c3.4,17.4,18.7,30,36.4,30s33-12.6,36.5-30.2l3.9-24.4c0.4-2.7-1.4-5.2-4.1-5.6   C161.7,89.1,159.2,90.9,158.7,93.6z"/><path d="M75.4,44.8l5.4,33.9c0.2,1.5,1.1,2.7,2.4,3.5c1.3,0.7,2.8,0.9,4.2,0.3c12.7-4.8,26.4-7.2,40.6-7.2s27.9,2.4,40.6,7.2   c0.6,0.2,1.1,0.3,1.7,0.3c0.9,0,1.7-0.2,2.5-0.7c1.3-0.7,2.1-2,2.4-3.5l5.4-33.9c7-1.4,12.3-7.6,12.3-15c0-4.6-2.1-9-5.7-11.9   c-3.6-2.9-8.3-4-13-3c-5.9,1.3-10.6,6.2-11.7,12.2c-0.7,3.9,0.2,7.9,2.2,11.1c-3.9,4.5-7.5,6.7-10.6,6.4c-3.1-0.2-8.2-3-14.9-14.5   c1.7-1.8,3-4,3.7-6.4c1.2-4.3,0.6-8.9-1.9-13c-2.5-4.2-7.4-6.8-13.1-6.8h0c-5.6,0-10.6,2.6-13.1,6.8c-2.5,4.1-3.2,8.8-1.9,13   c0.7,2.4,2,4.6,3.7,6.4C110,41.5,105,44.3,101.8,44.5c-3.1,0.3-6.7-1.9-10.6-6.4c2.1-3.2,2.9-7.2,2.2-11.2   c-1.1-6-5.8-10.9-11.7-12.1c-4.6-1-9.3,0.1-13,3s-5.7,7.3-5.7,11.9C63.1,37.2,68.4,43.4,75.4,44.8z M172.2,28.7   c0.4-2.1,2.1-3.9,4.2-4.3c0.5-0.1,0.9-0.1,1.3-0.1c1.7,0,2.8,0.7,3.5,1.2c1.3,1.1,2.1,2.6,2.1,4.3c0,3-2.5,5.5-5.5,5.5   c-0.2,0-0.4,0-0.6,0c-0.6-0.1-1.2,0-1.7,0.1c-0.3-0.5-0.7-0.9-1.1-1.2C172.6,32.8,171.8,30.8,172.2,28.7z M123.3,15.7   c0.7-1.2,2.6-2,4.7-2c2.1,0,3.9,0.8,4.7,2c1.1,1.8,1.4,3.6,0.9,5.2c-0.4,1.5-1.5,2.7-2.9,3.4c-1.2,0.6-2.1,1.6-2.5,2.9   c-0.1,0.3-0.2,0.7-0.2,1.1c0-0.4-0.1-0.7-0.2-1.1c-0.4-1.3-1.3-2.3-2.5-2.9c-1.4-0.7-2.5-2-2.9-3.4   C121.9,19.3,122.3,17.4,123.3,15.7z M102.6,54.3c8.7-0.7,16.8-8.3,24.8-23.3c0.3-0.6,0.5-1.2,0.6-1.9c0.1,0.6,0.2,1.3,0.6,1.9   c8,15,16.1,22.6,24.8,23.3c5.8,0.4,11.4-2.1,17-7.9l-4,24.9c-12.2-3.9-25.1-5.9-38.4-5.9s-26.2,2-38.4,5.9l-4-24.9   C91.2,52.2,96.8,54.7,102.6,54.3z M74.9,25.5c0.8-0.6,2.4-1.6,4.7-1.1c2.1,0.4,3.8,2.2,4.2,4.3c0.4,2.1-0.4,4.2-2,5.4   c-0.4,0.3-0.8,0.8-1.1,1.2c-0.3-0.1-0.7-0.1-1.1-0.1c-0.2,0-0.4,0-0.7,0c-0.2,0-0.4,0-0.6,0c-3,0-5.5-2.5-5.5-5.5   C72.9,28.1,73.6,26.5,74.9,25.5z"/><path d="M227.8,240.7l-12.1-56.8c-1.1-5.3-5-9.7-10.1-11.5l-38.8-13.8c-1.7-0.6-3.6-0.2-5,1L128,191.3l-33.9-31.6   c-1.3-1.3-3.3-1.7-5-1l-38.8,13.8c-5.1,1.8-9,6.2-10.1,11.5l-12.1,56.8c-0.6,2.8,0.1,5.7,1.9,8c1.8,2.2,4.5,3.5,7.4,3.5h181   c2.9,0,5.6-1.3,7.4-3.5S228.4,243.5,227.8,240.7z M37.9,242.3l12-56.4c0.4-2,1.9-3.7,3.8-4.3l36-12.8l35,32.7   c1.9,1.8,4.8,1.8,6.7,0l35-32.7l36,12.8c1.9,0.7,3.4,2.3,3.8,4.3l12,56.4H37.9z"/></g></svg>