<svg width="54" height="54" viewBox="0 0 54 54" fill="none" xmlns="http://www.w3.org/2000/svg">
<rect width="54" height="54" rx="16" fill="#05CE91"/>
<g clip-path="url(#clip0)">
<path d="M34 39H32C31.7348 39 31.4804 38.8946 31.2929 38.7071C31.1054 38.5196 31 38.2652 31 38C31 37.7348 31.1054 37.4804 31.2929 37.2929C31.4804 37.1054 31.7348 37 32 37H34C34.7956 37 35.5587 36.6839 36.1213 36.1213C36.6839 35.5587 37 34.7956 37 34V32C37 31.7348 37.1054 31.4804 37.2929 31.2929C37.4804 31.1054 37.7348 31 38 31C38.2652 31 38.5196 31.1054 38.7071 31.2929C38.8946 31.4804 39 31.7348 39 32V34C38.9984 35.3256 38.4711 36.5964 37.5338 37.5338C36.5964 38.4711 35.3256 38.9984 34 39Z" fill="#FCFEFF"/>
<path d="M16 23C15.7348 23 15.4804 22.8946 15.2929 22.7071C15.1054 22.5196 15 22.2652 15 22V20C15.0016 18.6744 15.5289 17.4036 16.4662 16.4662C17.4036 15.5289 18.6744 15.0016 20 15H22C22.2652 15 22.5196 15.1054 22.7071 15.2929C22.8946 15.4804 23 15.7348 23 16C23 16.2652 22.8946 16.5196 22.7071 16.7071C22.5196 16.8946 22.2652 17 22 17H20C19.2044 17 18.4413 17.3161 17.8787 17.8787C17.3161 18.4413 17 19.2044 17 20V22C17 22.2652 16.8946 22.5196 16.7071 22.7071C16.5196 22.8946 16.2652 23 16 23Z" fill="#FCFEFF"/>
<path d="M22 39H20C18.6744 38.9984 17.4036 38.4711 16.4662 37.5338C15.5289 36.5964 15.0016 35.3256 15 34V32C15 31.7348 15.1054 31.4804 15.2929 31.2929C15.4804 31.1054 15.7348 31 16 31C16.2652 31 16.5196 31.1054 16.7071 31.2929C16.8946 31.4804 17 31.7348 17 32V34C17 34.7956 17.3161 35.5587 17.8787 36.1213C18.4413 36.6839 19.2044 37 20 37H22C22.2652 37 22.5196 37.1054 22.7071 37.2929C22.8946 37.4804 23 37.7348 23 38C23 38.2652 22.8946 38.5196 22.7071 38.7071C22.5196 38.8946 22.2652 39 22 39Z" fill="#FCFEFF"/>
<path d="M38 23C37.7348 23 37.4804 22.8946 37.2929 22.7071C37.1054 22.5196 37 22.2652 37 22V20C37 19.2044 36.6839 18.4413 36.1213 17.8787C35.5587 17.3161 34.7956 17 34 17H32C31.7348 17 31.4804 16.8946 31.2929 16.7071C31.1054 16.5196 31 16.2652 31 16C31 15.7348 31.1054 15.4804 31.2929 15.2929C31.4804 15.1054 31.7348 15 32 15H34C35.3256 15.0016 36.5964 15.5289 37.5338 16.4662C38.4711 17.4036 38.9984 18.6744 39 20V22C39 22.2652 38.8946 22.5196 38.7071 22.7071C38.5196 22.8946 38.2652 23 38 23Z" fill="#FCFEFF"/>
<path d="M27 32C30.3137 32 33 29.3137 33 26C33 22.6863 30.3137 20 27 20C23.6863 20 21 22.6863 21 26C21 29.3137 23.6863 32 27 32Z" stroke="#FCFEFF" stroke-width="2" stroke-linecap="round" stroke-linejoin="round"/>
<path d="M35 34L32 31" stroke="#FCFEFF" stroke-width="2" stroke-linecap="round" stroke-linejoin="round"/>
</g>
<defs>
<clipPath id="clip0">
<rect width="24" height="24" fill="white" transform="translate(15 15)"/>
</clipPath>
</defs>
</svg>
