<svg width="48" height="48" viewBox="0 0 32 32" fill="none" xmlns="http://www.w3.org/2000/svg">
<path d="M0 13C0 5.8203 5.8203 0 13 0H19C26.1797 0 32 5.8203 32 13V19C32 26.1797 26.1797 32 19 32H13C5.8203 32 0 26.1797 0 19V13Z" fill="#FF7759"/>
<path d="M16 5.68994L21.66 11.3499C22.7794 12.4686 23.5418 13.894 23.8509 15.446C24.16 16.998 24.0019 18.6068 23.3965 20.0689C22.7912 21.531 21.7658 22.7808 20.4501 23.66C19.1344 24.5393 17.5875 25.0086 16.005 25.0086C14.4225 25.0086 12.8756 24.5393 11.5599 23.66C10.2442 22.7808 9.21882 21.531 8.61347 20.0689C8.00812 18.6068 7.85 16.998 8.15911 15.446C8.46822 13.894 9.23066 12.4686 10.35 11.3499L16 5.68994Z" stroke="#FCFEFF" stroke-width="2" stroke-linecap="round" stroke-linejoin="round"/>
<path d="M15.482 21.482C13.2947 21.482 11.5215 19.7088 11.5215 17.5215" stroke="#FCFEFF" stroke-width="2" stroke-linecap="round" stroke-linejoin="round"/>
</svg>
